<?xml version="1.0" encoding="UTF-8" standalone="no"?>
<svg width="54px" height="54px" viewBox="0 0 54 54" version="1.1" xmlns="http://www.w3.org/2000/svg" xmlns:xlink="http://www.w3.org/1999/xlink" xmlns:sketch="http://www.bohemiancoding.com/sketch/ns">
    <!-- Generator: Sketch 3.3.3 (12081) - http://www.bohemiancoding.com/sketch -->
    <title>Icon/contact</title>
    <desc>Created with Sketch.</desc>
    <defs></defs>
    <g id="Page-1" stroke="none" stroke-width="1" fill="none" fill-rule="evenodd" sketch:type="MSPage">
        <g id="Desktop/WhatWeDo" sketch:type="MSArtboardGroup" transform="translate(-1173.000000, -43.000000)">
            <g id="Content" sketch:type="MSLayerGroup">
                <g id="GetInTouch" transform="translate(1145.000000, 40.000000)" sketch:type="MSShapeGroup">
                    <g id="Icon/contact" transform="translate(25.000000, 0.000000)">
                        <rect id="canvus" x="0" y="0" width="60" height="60"></rect>
                        <g id="Imported-Layers" transform="translate(3.600000, 3.600000)" fill="#FFFFFF">
                            <path d="M27.4644,44.2188 C27.8112,43.8732 28.3776,43.8732 28.7232,44.2188 L33.7596,49.2552 C34.1052,49.6008 34.1052,50.1672 33.7596,50.514 L33.1296,51.1428 C28.7232,55.5492 18.8124,50.6736 10.4688,42.3312 C2.1264,33.9876 -2.7492,24.0756 1.6572,19.6704 L2.286,19.0404 C2.6328,18.6948 3.1992,18.6948 3.5448,19.0404 L8.5812,24.0756 C8.9268,24.4224 8.9268,24.9888 8.5812,25.3356 L7.3224,26.5944 C4.8048,29.112 8.2716,35.0964 12.9876,39.8124 C17.7036,44.5284 23.688,47.9952 26.2056,45.4776 L27.4644,44.2188" id="Fill-1"></path>
                            <path d="M10.6272,23.2896 L10.3116,23.604 C10.0524,23.8632 9.6276,23.8632 9.3672,23.604 L4.0176,18.2532 C3.7572,17.994 3.7572,17.5692 4.0176,17.31 L4.332,16.9944 C4.5912,16.7352 5.0172,16.7352 5.2764,16.9944 L10.6272,22.3452 C10.8864,22.6044 10.8864,23.0292 10.6272,23.2896" id="Fill-2"></path>
                            <path d="M35.8056,48.468 L35.49,48.7824 C35.2308,49.0428 34.806,49.0428 34.5468,48.7824 L29.196,43.4316 C28.9356,43.1724 28.9356,42.7476 29.196,42.4884 L29.5104,42.1728 C29.7708,41.9136 30.1956,41.9136 30.4548,42.1728 L35.8056,47.5236 C36.0648,47.7828 36.0648,48.2088 35.8056,48.468" id="Fill-3"></path>
                            <path d="M28.2,2.4 C35.8092,2.4 42,8.5908 42,16.2 C42,23.8092 35.8092,30 28.2,30 C20.5908,30 14.4,23.8092 14.4,16.2 C14.4,8.5908 20.5908,2.4 28.2,2.4 M28.2,0 C19.2528,0 12,7.2528 12,16.2 C12,25.1472 19.2528,32.4 28.2,32.4 C37.1472,32.4 44.4,25.1472 44.4,16.2 C44.4,7.2528 37.1472,0 28.2,0" id="Fill-4"></path>
                            <path d="M52.2,49.206 L4.2,49.206 C4.0032,49.206 3.8184,49.1088 3.7068,48.9468 C3.594,48.7848 3.57,48.5772 3.6384,48.3936 C7.5288,38.1132 17.4,31.206 28.2,31.206 C39,31.206 48.8712,38.1132 52.7616,48.3936 C52.83,48.5772 52.806,48.7848 52.6932,48.9468 C52.5816,49.1088 52.3968,49.206 52.2,49.206 L52.2,49.206 Z M5.0844,48.006 L51.3156,48.006 C47.3988,38.6388 38.2188,32.406 28.2,32.406 C18.1812,32.406 9.0012,38.6388 5.0844,48.006 L5.0844,48.006 Z" id="Fill-5"></path>
                        </g>
                    </g>
                </g>
            </g>
        </g>
    </g>
</svg>